<svg xmlns="http://www.w3.org/2000/svg" viewBox="0 0 512 512" fill="none">
  <defs>
    <linearGradient id="axBrass" x1="0" y1="0" x2="1" y2="1">
      <stop offset="0%" stop-color="#e0c07a"/>
      <stop offset="100%" stop-color="#8a5a22"/>
    </linearGradient>
    <linearGradient id="axIron" x1="0" y1="1" x2="1" y2="0">
      <stop offset="0%" stop-color="#3a2018"/>
      <stop offset="100%" stop-color="#8a4030"/>
    </linearGradient>
  </defs>
  <g transform="rotate(-38 256 256)">
    <rect x="244" y="70" width="24" height="300" rx="6" fill="url(#axIron)"/>
    <path d="M160 92c48-28 92-28 140-6-10 34-18 52-18 78-46-8-82-4-122 18 6-34 8-62 0-90z" fill="url(#axBrass)"/>
    <path d="M256 372l-22 54h44l-22-54z" fill="url(#axBrass)"/>
  </g>
  <g transform="rotate(38 256 256)">
    <rect x="244" y="70" width="24" height="300" rx="6" fill="url(#axIron)"/>
    <path d="M160 92c48-28 92-28 140-6-10 34-18 52-18 78-46-8-82-4-122 18 6-34 8-62 0-90z" fill="url(#axBrass)"/>
    <path d="M256 372l-22 54h44l-22-54z" fill="url(#axBrass)"/>
  </g>
  <circle cx="256" cy="256" r="28" fill="#6e1c16" stroke="#c9a15c" stroke-width="6"/>
  <circle cx="256" cy="256" r="10" fill="#c9a15c"/>
</svg>
